<svg xmlns="http://www.w3.org/2000/svg" viewBox="0 0 532 470"><defs><style>.cls-1,.cls-10,.cls-14{fill:#fff;}.cls-1{opacity:0.01;}.cls-2{fill:#07135f;}.cls-3{fill:#0b1320;}.cls-4{fill:#f3a268;}.cls-5{fill:#f7f7f7;}.cls-6{fill:#b4dd64;}.cls-7{fill:#15a258;}.cls-8{fill:#ffc802;}.cls-9{fill:#cfd3d9;}.cls-11{fill:#fe6933;}.cls-12{fill:#00dae4;}.cls-13{fill:#1678f2;}.cls-14,.cls-15{fill-rule:evenodd;}.cls-15{fill:#1ca1f1;}</style></defs><g id="Layer_2" data-name="Layer 2"><g id="Layer_1-2" data-name="Layer 1"><rect class="cls-1" width="532" height="470"/><rect class="cls-2" x="224.17" y="385.47" width="77" height="13.14"/><path class="cls-3" d="M224.17,399.74h77a1.13,1.13,0,0,0,1.12-1.12V385.47a1.13,1.13,0,0,0-1.12-1.12h-77a1.13,1.13,0,0,0-1.12,1.12v13.15a1.13,1.13,0,0,0,2.25,0V385.47l-1.13,1.13h77L300,385.47v13.15l1.13-1.13h-77A1.13,1.13,0,0,0,224.17,399.74Z"/><path class="cls-3" d="M269.73,385.53v12.89a1.13,1.13,0,0,0,2.25,0V385.53a1.13,1.13,0,0,0-2.25,0Z"/><path class="cls-3" d="M257.27,385.53v12.89a1.13,1.13,0,0,0,2.25,0V385.53a1.13,1.13,0,0,0-2.25,0Z"/><path class="cls-2" d="M220.75,463.48s-.57-39.15-.57-46,4-18.86,4-18.86h77s6.27,3.43,6.27,9.14.57,55.72.57,55.72"/><path class="cls-3" d="M221.87,463.48q-.15-10.69-.29-21.38-.11-7.89-.2-15.76c0-3.6-.29-7.29,0-10.88a73.23,73.23,0,0,1,3.86-16.54l-1.09.82h76.19a2.3,2.3,0,0,0,.74,0c.24-.13-.47-.19-.45-.13s.82.52,1,.63c2.63,1.85,4.67,4.52,4.7,7.84l0,4.9c0,5.93.12,11.87.18,17.8q.17,16.05.35,32.1v.6a1.13,1.13,0,0,0,2.25,0q-.17-14.12-.31-28.23-.1-9.66-.2-19.34c0-2.11,0-4.23-.05-6.34,0-2.62-.25-5-1.79-7.29a15.79,15.79,0,0,0-3.59-3.66,4.76,4.76,0,0,0-2-1.13,15.27,15.27,0,0,0-1.79,0H250.13c-8.51,0-17-.13-25.54,0h-.42a1.14,1.14,0,0,0-1.08.83,87.6,87.6,0,0,0-3.59,14.33,72.86,72.86,0,0,0-.39,11.82q.16,15.39.4,30.8c0,2.74.07,5.47.11,8.21a1.13,1.13,0,0,0,2.25,0Z"/><path class="cls-3" d="M316.22,219.25c7-39.21-14.91-51.82-14.91-51.82-41.93-35.48-71.75,10.28-71.75,10.28a38.49,38.49,0,0,0-23.3,13.06c-9.78,11.68,0,32.45,0,32.45-12.58,18.44-13.51,42.25-13.51,42.25v8.41H330.87l.27-4.67A70.68,70.68,0,0,0,316.22,219.25ZM308,241.42a18.94,18.94,0,0,1-7.39-1.69,28.39,28.39,0,0,1-27.65,22H252.82A28.41,28.41,0,0,1,225.24,240a24.11,24.11,0,0,1-7.36,1.39c-6.11,0-9.35-5-9.35-11.08s3.24-11.09,9.35-11.09a23.55,23.55,0,0,1,6.56,1.1v-7.2a28.63,28.63,0,0,1,.27-4c9.49,7.12,14.17-20.23,14.28-20.87,7.93,7.8,29.59,25.52,62.32,24.83v7.23a23.53,23.53,0,0,1,6.66-1.13c6.11,0,9.34,5,9.34,11.09S314.08,241.42,308,241.42Z"/><path class="cls-3" d="M317.31,219.55c2.32-13.19,2.22-27.41-3.94-39.61a35.63,35.63,0,0,0-11.16-13.28c-1.5-1-2.86-2.29-4.34-3.38a59.66,59.66,0,0,0-10.29-6.19,43,43,0,0,0-18.68-4.26c-10.41.13-20.09,4.65-28.07,11.13a65.6,65.6,0,0,0-8.27,8.06,29.93,29.93,0,0,0-3.81,4.88c0,.08-.11.16-.16.24l1-.56c-7.58.81-15.16,4.8-20.72,9.88a25.18,25.18,0,0,0-5.68,7,22.26,22.26,0,0,0-2.17,7.49,39.06,39.06,0,0,0,1.38,14.58,49.32,49.32,0,0,0,2.92,8.28v-1.14c-5.87,8.67-9.55,18.72-11.72,28.92a75.68,75.68,0,0,0-1.95,14.05c-.05,2.75,0,5.51,0,8.26a1.14,1.14,0,0,0,1.13,1.12H313.82c5.59,0,11.22.21,16.81,0h.24a1.14,1.14,0,0,0,1.12-1.12c.24-4.05.63-8.11.57-12.16a70.91,70.91,0,0,0-2.44-17.2,72.53,72.53,0,0,0-10.23-22.26,39.4,39.4,0,0,0-2.87-3.8c-1-1.09-2.55.5-1.59,1.59a27.8,27.8,0,0,1,2.07,2.7,67.22,67.22,0,0,1,4.9,8.09,70.1,70.1,0,0,1,7.84,28.88,133.92,133.92,0,0,1-.5,14.16l1.13-1.13H198.4a37.57,37.57,0,0,0-5.41,0,1,1,0,0,1-.24,0l1.12,1.13a103.66,103.66,0,0,1,.76-15.56,99.66,99.66,0,0,1,3.79-16.17,80,80,0,0,1,3.78-9.55c.78-1.63,1.62-3.24,2.53-4.81q.61-1.06,1.26-2.1c.41-.65,1.28-1.54,1.38-2.32s-.57-1.71-.81-2.31a54.13,54.13,0,0,1-1.81-5.39c-1.41-5-2.27-10.49-1.37-15.69,1.12-6.41,5.42-11.16,10.63-14.8a38.34,38.34,0,0,1,13.26-5.91q.9-.21,1.8-.36l.52-.08c-.23,0-.19,0,0,0a2,2,0,0,0,1.27-1,44.34,44.34,0,0,1,3-3.92,60.12,60.12,0,0,1,15.7-13.29,39,39,0,0,1,26-5,46.56,46.56,0,0,1,16.25,6.33c1.51.91,3,1.9,4.4,2.93s2.95,2.44,4.51,3.54c.18.14.39.25.58.38A25.17,25.17,0,0,1,305,172a35.41,35.41,0,0,1,5.36,7.16c5.05,8.78,6.52,19.15,6,29.15A86.87,86.87,0,0,1,315.14,219C314.89,220.37,317.06,221,317.31,219.55Z"/><path class="cls-3" d="M308,240.3a17.32,17.32,0,0,1-6.83-1.54,1.14,1.14,0,0,0-1.65.67,27.62,27.62,0,0,1-12.82,17.47,26.86,26.86,0,0,1-10.51,3.54,45.28,45.28,0,0,1-5.21.18H252.82a27.39,27.39,0,0,1-11-2.32,27.67,27.67,0,0,1-15.46-18.57A1.13,1.13,0,0,0,225,239c-3.45,1.21-8,2.28-11.32.2-2.88-1.8-3.94-5.41-4-8.63s.92-6.91,3.74-8.84c3.09-2.12,7.42-1.33,10.75-.25a1.13,1.13,0,0,0,1.42-1.08,86.53,86.53,0,0,1,.27-11.16l-1.69,1c9.13,6.68,13.85-12,15.13-17.61.3-1.3.58-2.61.81-3.93l-1.88.5a88.56,88.56,0,0,0,42.95,23.22,87.53,87.53,0,0,0,20.16,1.93l-1.12-1.12v7.23a1.13,1.13,0,0,0,1.42,1.08c2.9-1,6.62-1.71,9.55-.49,2.67,1.11,4.17,3.72,4.75,6.45,1.21,5.75-1.24,12.77-7.94,12.88a1.13,1.13,0,0,0,0,2.25c6-.1,9.71-4.63,10.36-10.31.62-5.37-1.35-11.6-6.86-13.55-3.26-1.15-7.27-.46-10.45.6l1.42,1.09v-7.23a1.15,1.15,0,0,0-1.13-1.13,86,86,0,0,1-54.38-18.25,83,83,0,0,1-7.14-6.24,1.13,1.13,0,0,0-1.88.49,78.66,78.66,0,0,1-2,8.71,45.47,45.47,0,0,1-2.47,6.69,13.64,13.64,0,0,1-3.44,5c-1.56,1.23-3.12,1-4.67-.17-.78-.56-1.6.24-1.7,1a86.53,86.53,0,0,0-.27,11.16l1.42-1.09c-3.17-1-7.12-1.72-10.36-.57A10.18,10.18,0,0,0,208.3,225c-2.11,5.65-.77,14,5.24,16.67,3.73,1.67,8.3.77,12-.53l-1.38-.79a29.91,29.91,0,0,0,13.48,18.33c5.23,3.16,11,4.21,17,4.21h15.19c1.51,0,3,0,4.54,0A29.49,29.49,0,0,0,301.66,240l-1.65.67a19.91,19.91,0,0,0,8,1.85A1.13,1.13,0,0,0,308,240.3Z"/><path class="cls-4" d="M317.31,230.34c0,6.12-3.23,11.08-9.34,11.08a18.94,18.94,0,0,1-7.39-1.69,28.39,28.39,0,0,1-27.65,22H252.82A28.41,28.41,0,0,1,225.24,240a24.11,24.11,0,0,1-7.36,1.39c-6.11,0-9.35-5-9.35-11.08s3.24-11.09,9.35-11.09a23.55,23.55,0,0,1,6.56,1.1v-7.2a28.63,28.63,0,0,1,.27-4c9.49,7.12,14.17-20.23,14.28-20.87,7.93,7.8,29.59,25.52,62.32,24.83v7.23a23.53,23.53,0,0,1,6.66-1.13C314.08,219.25,317.31,224.21,317.31,230.34Z"/><path class="cls-3" d="M316.19,230.34c0,3.25-1,6.84-3.85,8.73-3.26,2.14-7.88,1.2-11.2-.31a1.14,1.14,0,0,0-1.65.67,27.62,27.62,0,0,1-12.82,17.47,26.86,26.86,0,0,1-10.51,3.54,45.28,45.28,0,0,1-5.21.18H252.82a27.39,27.39,0,0,1-11-2.32,27.67,27.67,0,0,1-15.46-18.57A1.13,1.13,0,0,0,225,239c-3.45,1.21-8,2.28-11.32.2-2.88-1.8-3.94-5.41-4-8.63s.92-6.91,3.74-8.84c3.09-2.12,7.42-1.33,10.75-.25a1.13,1.13,0,0,0,1.42-1.08,86.53,86.53,0,0,1,.27-11.16l-1.69,1c9.13,6.68,13.85-12,15.13-17.61.3-1.3.58-2.61.81-3.93l-1.88.5a88.56,88.56,0,0,0,42.95,23.22,87.53,87.53,0,0,0,20.16,1.93l-1.12-1.12v7.23a1.13,1.13,0,0,0,1.42,1.08c3.3-1.09,7.63-1.9,10.73.14,2.87,1.89,3.82,5.49,3.85,8.74a1.13,1.13,0,0,0,2.25,0c0-4-1.33-8.14-4.73-10.52-3.64-2.54-8.72-1.85-12.69-.53l1.42,1.09v-7.23a1.15,1.15,0,0,0-1.13-1.13,86,86,0,0,1-54.38-18.25,83,83,0,0,1-7.14-6.24,1.13,1.13,0,0,0-1.88.49,78.66,78.66,0,0,1-2,8.71,45.47,45.47,0,0,1-2.47,6.69,13.64,13.64,0,0,1-3.44,5c-1.56,1.23-3.12,1-4.67-.17-.78-.56-1.6.24-1.7,1a86.53,86.53,0,0,0-.27,11.16l1.42-1.09c-3.17-1-7.12-1.72-10.36-.57A10.18,10.18,0,0,0,208.3,225c-2.11,5.65-.77,14,5.24,16.67,3.73,1.67,8.3.77,12-.53l-1.38-.79a29.91,29.91,0,0,0,13.48,18.33c5.23,3.16,11,4.21,17,4.21h15.19c1.51,0,3,0,4.54,0A29.49,29.49,0,0,0,301.66,240l-1.65.67c4.06,1.85,9.47,2.9,13.46.31,3.57-2.31,4.93-6.6,5-10.67A1.13,1.13,0,0,0,316.19,230.34Z"/><path class="cls-3" d="M300.44,232.64l5.93-4.21.84-.6a1.12,1.12,0,1,0-1.13-1.94l-5.94,4.21-.84.6a1.16,1.16,0,0,0-.4,1.54,1.14,1.14,0,0,0,1.54.4Z"/><path class="cls-5" d="M318.8,247.75l-15.51.36s.16,9,8.17,8.73C318.8,256.57,318.8,247.75,318.8,247.75Z"/><path class="cls-3" d="M318.8,246.63l-13.56.31-1.95.05a1.14,1.14,0,0,0-1.13,1.12c.07,3.26,1.52,6.86,4.35,8.65a9.07,9.07,0,0,0,8.19.49,8.66,8.66,0,0,0,4.43-5.18,12.72,12.72,0,0,0,.8-4.32,1.13,1.13,0,0,0-2.25,0,7.55,7.55,0,0,1-.05.83c0,.13,0,.27-.05.4,0-.3,0,.22-.05.3a10.8,10.8,0,0,1-.24,1.13,7.26,7.26,0,0,1-2.71,4.35,6.28,6.28,0,0,1-9.57-3.6,11.92,11.92,0,0,1-.54-2.29c0,.35,0-.1,0-.18s0-.21,0-.31a2.45,2.45,0,0,1,0-.27l-1.12,1.13,13.56-.32,1.95,0A1.13,1.13,0,0,0,318.8,246.63Z"/><path class="cls-5" d="M221.61,247.75l-15.52.36s.16,9,8.17,8.73C221.61,256.57,221.61,247.75,221.61,247.75Z"/><path class="cls-3" d="M221.61,246.63l-13.57.31-1.95.05a1.12,1.12,0,0,0-1.12,1.12c.06,3.26,1.51,6.86,4.34,8.65a9.07,9.07,0,0,0,8.19.49,8.71,8.71,0,0,0,4.44-5.18,13,13,0,0,0,.79-4.32,1.13,1.13,0,0,0-2.25,0,7.55,7.55,0,0,1,0,.83c0,.13,0,.27,0,.4,0-.3,0,.22,0,.3-.07.38-.15.76-.25,1.13a7.26,7.26,0,0,1-2.71,4.35,6.28,6.28,0,0,1-9.57-3.6,12.71,12.71,0,0,1-.54-2.29c0,.35,0-.1,0-.18s0-.21,0-.31a2.44,2.44,0,0,1,0-.27l-1.13,1.13,13.56-.32,2,0C223.05,248.84,223.06,246.59,221.61,246.63Z"/><path class="cls-3" d="M236.59,223.79c1.77-3.59,5.68-7,10-5.25,2.62,1.06,4.67,3.32,6.38,5.48.9,1.13,2.49-.47,1.59-1.59-2.83-3.57-6.93-7.36-11.87-6.53-2.93.49-5.28,2.64-7,5a11.78,11.78,0,0,0-1.1,1.79c-.64,1.29,1.3,2.43,1.94,1.13Z"/><path class="cls-3" d="M273.63,223.79c1.78-3.59,5.69-7,10-5.25,2.62,1.06,4.66,3.32,6.38,5.48.9,1.13,2.48-.47,1.59-1.59-2.84-3.57-6.93-7.36-11.87-6.53-2.94.49-5.28,2.64-7,5a12.7,12.7,0,0,0-1.11,1.79c-.64,1.29,1.3,2.43,1.94,1.13Z"/><path class="cls-3" d="M243.91,238.65a23.79,23.79,0,0,0,6.82,4.26,29.69,29.69,0,0,0,17.85,1.82,40,40,0,0,0,13.73-5.91c1.21-.78.09-2.73-1.13-1.94-6.38,4.15-13.74,6.86-21.44,6.12a26.83,26.83,0,0,1-12.33-4.47,12.73,12.73,0,0,1-1.91-1.47c-1.05-1-2.65.59-1.59,1.59Z"/><path class="cls-3" d="M236.41,206.05l.19-.15c.19-.16-.16.12,0,0l.39-.29c.65-.48,1.31-.93,2-1.37a50.47,50.47,0,0,1,7.46-4A40.16,40.16,0,0,1,271,197.49a41.16,41.16,0,0,1,16.92,8.56c1.11.91,2.71-.68,1.59-1.59-8.51-7-19-11-30-9.91a48.5,48.5,0,0,0-20.79,7.2,35.8,35.8,0,0,0-3.87,2.71c-1.12.92.48,2.5,1.59,1.59Z"/><path class="cls-3" d="M226.54,230.7l-5.93-4.21-.84-.6a1.14,1.14,0,0,0-1.54.4,1.15,1.15,0,0,0,.4,1.54l5.94,4.22.84.59a1.14,1.14,0,0,0,1.54-.4,1.16,1.16,0,0,0-.41-1.54Z"/><path class="cls-3" d="M297.65,219.26a15.22,15.22,0,0,1-.94,5.63,8.57,8.57,0,0,1-8.21,5.87c-5.26.24-10.55.27-15.81.05-.51,0-1,0-1.55-.09.47.05-.35-.08-.51-.13a4.83,4.83,0,0,1-1.16-.45c-3.93-2-4.84-6.85-4.9-10.88a1.15,1.15,0,0,0-1.12-1.13h-.79a1.15,1.15,0,0,0-1.12,1.13c-.06,3.75-.82,8.32-4.26,10.52a7,7,0,0,1-2.22.91c-.47.13,0,0-.22.05l-.58,0c-4.59.23-9.19.22-13.78.09-2.55-.07-5.24.06-7.5-1.31a8.44,8.44,0,0,1-3.22-3.77,14.64,14.64,0,0,1-1.3-6.52c0-1.45-2.2-1.45-2.25,0a17,17,0,0,0,1.16,6.62,10.64,10.64,0,0,0,9.12,7.06,123.6,123.6,0,0,0,17.32.1,9,9,0,0,0,4.28-1.13c4.41-2.52,5.63-7.94,5.7-12.65l-1.13,1.12h.79l-1.13-1.12c.08,5.75,2.45,13.28,9.24,13.74a146.18,146.18,0,0,0,15.24.07c2.65-.09,5.26-.19,7.57-1.64a10.44,10.44,0,0,0,3.78-4.23,16.79,16.79,0,0,0,1.75-7.94c0-1.45-2.3-1.45-2.25,0Z"/><path class="cls-6" d="M238.42,280.13a111.69,111.69,0,0,0-15.31,8.69V404.94c5.14-1.37,10.7-3.15,16.74-5.41v-120C239.37,279.72,238.89,279.91,238.42,280.13Z"/><path class="cls-6" d="M204.31,304.39V408.32a99.62,99.62,0,0,0,16.74-2.84V290.23A127.93,127.93,0,0,0,204.31,304.39Z"/><path class="cls-6" d="M260.7,322.2v63.27h16.74V266l-16.74,5.94Z"/><path class="cls-6" d="M241.9,278.65V398.74c5.17-2,10.64-4.29,16.49-7v-6.29h.26V272.65l-14.36,5.09C243.49,278,242.69,278.33,241.9,278.65Z"/><path class="cls-6" d="M183.46,405.64V330.45c-2.8,4.35-5.39,8.8-7.78,13.31C166.13,361.82,160,395.63,183.46,405.64Z"/><path class="cls-6" d="M185.51,371.43v35a45.21,45.21,0,0,0,16.75,2v-102a156.65,156.65,0,0,0-16.75,20.86Z"/><path class="cls-6" d="M398.7,132.88l-6.42,1.62v84.69C406,175.37,398.7,132.88,398.7,132.88Z"/><path class="cls-6" d="M317.09,268.47v32.89a137.31,137.31,0,0,0,16.75-7.95V246l-16.75,5.94Z"/><path class="cls-6" d="M335.89,268.47v23.76a122.94,122.94,0,0,0,16.74-11.76V239.32l-16.74,5.94Z"/><path class="cls-6" d="M354.69,163.29v39.45l1.08,35.47-1.08.38v40.12a119,119,0,0,0,16.74-18.08V139.74L354.69,144Z"/><path class="cls-6" d="M373.48,163.29v94.52a135.41,135.41,0,0,0,16.75-32.52V135l-16.75,4.22Z"/><path class="cls-6" d="M298.29,268.47v117h2.87c9.7,0,7.42-25.71,7.42-25.71L303.44,306q6-1.77,11.6-3.89v-49.5l-16.75,5.94Z"/><path class="cls-6" d="M279.5,268.47v117h16.74V259.32l-16.74,5.93Z"/><path class="cls-5" d="M185.51,327.34c-.7,1-1.38,2.07-2,3.11v75.19c.66.28,1.34.55,2,.79V327.34Z"/><path class="cls-5" d="M202.26,306.48v102l2.05-.12V304.39C203.62,305.08,202.93,305.78,202.26,306.48Z"/><path class="cls-5" d="M221.05,290.23V405.48l2.06-.54V288.82C222.42,289.28,221.73,289.75,221.05,290.23Z"/><path class="cls-5" d="M239.85,279.51v120l2.05-.79V278.65C241.21,278.92,240.53,279.21,239.85,279.51Z"/><path class="cls-5" d="M260.7,322.2V271.92l-2.05.73V385.47h2.05V322.2Z"/><path class="cls-5" d="M279.5,322.2V265.25l-2.06.73V385.47h2.06V322.2Z"/><path class="cls-5" d="M298.29,322.2V258.59l-2.05.73V385.47h2.05V322.2Z"/><path class="cls-5" d="M317.09,251.92l-2,.73v49.5l2-.79V251.92Z"/><path class="cls-5" d="M335.89,245.26l-2.05.72v47.43l2.05-1.18v-47Z"/><path class="cls-5" d="M354.69,144l-1.78.44,1.78,58.34V144Z"/><path class="cls-5" d="M354.69,238.59l-2.06.73v41.15c.7-.58,1.38-1.17,2.06-1.76V238.59Z"/><path class="cls-5" d="M371.43,201.25v59.38c.7-.93,1.38-1.87,2.05-2.82V139.23l-2.05.51v61.51Z"/><path class="cls-5" d="M390.23,201.25v24q1.09-3.06,2-6.1V134.5l-2,.51v66.24Z"/><path class="cls-3" d="M221.22,464.6a1.13,1.13,0,0,0,0-2.25,1.13,1.13,0,0,0,0,2.25Z"/><path class="cls-7" d="M316.66,463.48s30.59-55.51,19.67-59.59c-14.9-5.57-30.08,39.51-28,59.59Z"/><path class="cls-3" d="M317.63,464.05c2.85-5.17,5.53-10.44,8.12-15.75,4.6-9.41,9.1-19.05,12.13-29.1,1.47-4.9,4.84-15.85-3.12-16.83-4.13-.52-7.77,2.2-10.4,5.1-3.9,4.31-6.64,9.64-8.91,14.94a111.22,111.22,0,0,0-6.14,19.12,80.67,80.67,0,0,0-2.26,18.24c0,1.24.07,2.48.2,3.71a1.14,1.14,0,0,0,1.12,1.12h8.29a1.13,1.13,0,0,0,0-2.25h-8.29l1.13,1.13a60,60,0,0,1,1-16.38,112.16,112.16,0,0,1,5-18.66,70.84,70.84,0,0,1,7.8-15.95c2.19-3.2,5.25-7.05,9.29-7.83a5.43,5.43,0,0,1,3.89.58c-.17-.13.23.22.32.33s0-.08.07.09l.23.4a2.11,2.11,0,0,1,.19.53,8.08,8.08,0,0,1,.2.85c.49,3-.53,6.82-1.39,9.88-2.7,9.61-7,18.81-11.28,27.79-2.84,5.91-5.93,11.69-8.95,17.52l-.16.28C315,464.18,316.93,465.32,317.63,464.05Z"/><path class="cls-7" d="M335.69,463.48s27.16-20.55,21.83-34.21a3.08,3.08,0,0,0-2.52-1.95c-18.22-1.89-36.31,31.51-38.34,36.16Z"/><path class="cls-3" d="M336.26,464.45A95.92,95.92,0,0,0,347,454.9c5.1-5.24,10.81-11.75,12.12-19.2.58-3.26.4-8.79-3.78-9.47-3.57-.58-7.38.57-10.55,2.13-7.58,3.73-13.5,10.57-18.46,17.23a92,92,0,0,0-10.6,17.32,1.14,1.14,0,0,0,1,1.69h19a1.13,1.13,0,0,0,0-2.25h-19l1,1.7a86.75,86.75,0,0,1,7.93-13.56c4.47-6.57,9.67-13.12,16.22-17.73a22.74,22.74,0,0,1,9.71-4.26c1.65-.23,4.23-.59,5,1.27a9.32,9.32,0,0,1,.53,4.32c-.27,3.32-1.86,6.48-3.6,9.26a57.6,57.6,0,0,1-7,8.83,101.14,101.14,0,0,1-7.79,7.42c-.87.75-1.76,1.49-2.66,2.22l-.79.62-.09.07C334,463.37,335.1,465.33,336.26,464.45Z"/><path class="cls-3" d="M355,409c-3.35,3.19-6.5,6.61-9.57,10.07A211.77,211.77,0,0,0,326,444.39a144.17,144.17,0,0,0-10.27,18.52c-.6,1.31,1.34,2.45,1.94,1.14,8.54-18.67,21.4-35.49,35.65-50.19,1.08-1.12,2.18-2.24,3.31-3.31S356.05,408,355,409Z"/><ellipse class="cls-8" cx="364.2" cy="402.06" rx="11.81" ry="11.83"/><path class="cls-3" d="M374.16,406A10.7,10.7,0,1,1,370,393.07,10.81,10.81,0,0,1,374.16,406c-.5,1.36,1.67,1.95,2.17.6a12.93,12.93,0,1,0-14.28,8.26,13.08,13.08,0,0,0,14.28-8.26C376.86,405.23,374.68,404.65,374.16,406Z"/><path class="cls-3" d="M365.3,390.11a33,33,0,0,1-1.95,7A27.12,27.12,0,0,1,354.94,409c-1.14.89.46,2.47,1.59,1.6a29.07,29.07,0,0,0,8.83-12.49,33.27,33.27,0,0,0,2.11-7.36c.21-1.42-2-2-2.17-.6Z"/><path class="cls-3" d="M374,408.73a13.06,13.06,0,0,0-5.73-4c-5-1.8-9.79.67-13.28,4.21-1,1,.57,2.63,1.59,1.6,3-3.09,7.11-5.29,11.41-3.52a11,11,0,0,1,4.42,3.28c.9,1.13,2.48-.47,1.59-1.59Z"/><path class="cls-3" d="M364.56,397.44a5.75,5.75,0,0,1,.71.2l.34.12.19.08c.14.05-.28-.13,0,0a9.1,9.1,0,0,1,.88.45l.45.29.22.16c-.22-.16,0,0,.07.07a3.33,3.33,0,0,1,.39.36l.21.21c.05.07.29.38.11.12a5.85,5.85,0,0,1,.63,1.08c-.12-.26,0,.05,0,.12s.07.22.1.33.05.23.08.34l0,.18c.06.29,0-.23,0,.07a8.82,8.82,0,0,1,0,.89,4.51,4.51,0,0,1-.08.8,10.62,10.62,0,0,1-.69,2.29,1.16,1.16,0,0,0,.4,1.54,1.13,1.13,0,0,0,1.54-.4c1.08-2.52,1.67-5.49.13-8a8.17,8.17,0,0,0-4.16-3.2,7.61,7.61,0,0,0-1-.31,1.16,1.16,0,0,0-1.39.79,1.14,1.14,0,0,0,.79,1.38Z"/><path class="cls-3" d="M172.49,424.29l.76.31.63.28,1.22.56a76.19,76.19,0,0,1,7.2,3.95,85.72,85.72,0,0,1,20.51,17.74,82.36,82.36,0,0,1,10.92,16.92c.63,1.3,2.57.16,1.94-1.14a85.7,85.7,0,0,0-38.85-39.13c-1.22-.59-2.46-1.18-3.73-1.65s-1.94,1.66-.6,2.16Z"/><ellipse class="cls-8" cx="161.47" cy="419.87" rx="11.81" ry="11.83"/><path class="cls-3" d="M152.55,429.26a13,13,0,1,0-2-16.35,13.1,13.1,0,0,0,2,16.35c1,1,2.63-.58,1.59-1.59a10.69,10.69,0,1,1,13.57.9,10.88,10.88,0,0,1-13.57-.9C153.08,426.68,151.49,428.27,152.55,429.26Z"/><path class="cls-3" d="M153.49,410.88a34.93,34.93,0,0,0,11.79,10.73,24.86,24.86,0,0,0,6.85,2.61c1.41.3,2-1.87.6-2.17a27.07,27.07,0,0,1-12.62-7,39.79,39.79,0,0,1-3.55-3.79c-.49-.61-.67-.81-1.13-1.48-.81-1.2-2.76-.07-1.94,1.13Z"/><path class="cls-3" d="M157.71,430.78a8.77,8.77,0,0,1,.35-1.1q.09-.27.21-.54c-.12.28.14-.32.2-.42a13.31,13.31,0,0,1,.76-1.38,10,10,0,0,1,2.25-2.51,8.3,8.3,0,0,1,4-1.62,14.12,14.12,0,0,1,6.7,1c1.37.49,2-1.68.6-2.17-3.83-1.39-8.28-1.82-11.86.48a12.84,12.84,0,0,0-4.8,6.08,11.15,11.15,0,0,0-.53,1.57c-.32,1.41,1.85,2,2.17.6Z"/><path class="cls-3" d="M157.85,414c-2.52,1.9-4.13,5.26-3,8.36a10.38,10.38,0,0,0,3,4.16,1.15,1.15,0,0,0,1.59,0,1.13,1.13,0,0,0,0-1.59,7.83,7.83,0,0,1-2.65-3.72,4.43,4.43,0,0,1,.22-2.72c0,.11.09-.19.11-.22a2.91,2.91,0,0,1,.18-.35,6,6,0,0,1,.33-.54l.21-.29c.11-.16-.13.14.07-.1l.35-.39a6.9,6.9,0,0,1,.61-.6c.12-.1.5-.4,0-.06a1.16,1.16,0,0,0,.4-1.54,1.13,1.13,0,0,0-1.53-.4Z"/><line class="cls-7" x1="86.05" y1="463.48" x2="416.21" y2="463.48"/><path class="cls-3" d="M86.05,464.6H402.81c4.28,0,8.56.08,12.84,0h.56a1.13,1.13,0,0,0,0-2.25H99.45c-4.28,0-8.56-.07-12.84,0h-.56a1.13,1.13,0,0,0,0,2.25Z"/><path class="cls-7" d="M214.7,463.48c-12.65-22.4-25.47-24.68-31.26-24.28a6.39,6.39,0,0,0-5.82,4.64c-.65,2.52,0,6,5.37,10,10.67,7.94,15.85,9.63,15.85,9.63Z"/><path class="cls-3" d="M215.67,462.91c-4.63-8.15-10.52-16.27-18.71-21.16-4.07-2.42-9.07-4.17-13.87-3.64a7.47,7.47,0,0,0-6.73,8.26c.62,4.94,5.38,8,9.1,10.65a78.92,78.92,0,0,0,10.31,6.33A8.85,8.85,0,0,0,199,464.6c5.2.25,10.47,0,15.68,0a1.13,1.13,0,0,0,0-2.25H201c-.68,0-1.36,0-2,0-.27,0,.39.13.13,0l-.54-.2-.7-.31-1.41-.69c-1.38-.71-2.72-1.48-4-2.28-2-1.2-3.89-2.48-5.77-3.8a28.15,28.15,0,0,1-6.35-5.35c-2.18-2.79-2.53-7,1.09-8.8,1.83-.94,4.25-.74,6.22-.4a23.43,23.43,0,0,1,6.8,2.34c8.62,4.51,14.68,12.92,19.37,21.18A1.13,1.13,0,0,0,215.67,462.91Z"/><path class="cls-7" d="M221.22,463.48s-5.3-36.51-18.41-35.6c0,0-4.79.43-2.05,9.59s11.23,18.23,13.94,26Z"/><path class="cls-3" d="M222.3,463.18a91.85,91.85,0,0,0-7.22-25.62c-2-4.19-5-9.37-9.85-10.58a5.14,5.14,0,0,0-4.17.41c-2.27,1.5-2.46,4.52-2.13,7,1.5,11.25,11,19.09,14.68,29.43a1.17,1.17,0,0,0,1.09.82h6.52a1.13,1.13,0,0,0,0-2.25H214.7l1.08.83c-3.12-8.72-10-15.51-13.31-24.18a18.59,18.59,0,0,1-1.43-6.44,4.67,4.67,0,0,1,.72-2.8,2.05,2.05,0,0,1,.6-.54c.36-.23.08-.09.49-.2.18,0,.36,0,0,0a6,6,0,0,1,1.34,0c4.4.68,7.12,5.75,8.84,9.33a78.54,78.54,0,0,1,5.22,15.69c.76,3.2,1.45,6.45,1.92,9.71C220.34,465.21,222.51,464.6,222.3,463.18Z"/><path class="cls-9" d="M68.78,334.53h88.16a2.17,2.17,0,0,0,1.53-3.72c-3.56-3.43-10.8-7.71-23.95-5.88a2.48,2.48,0,0,1-2.67-1.61c-1.52-4.19-6.31-13.71-18.5-13.71-13,0-19.85,7.89-22,12.5a2.45,2.45,0,0,1-3.11,1.23,16.78,16.78,0,0,0-9.49-1c-5,1.16-9.88,4.22-12,9.2A2.17,2.17,0,0,0,68.78,334.53Z"/><path class="cls-3" d="M68.78,335.66h87.67c2.36,0,4.53-1.91,3.59-4.45-.55-1.49-2.37-2.64-3.63-3.5a24.16,24.16,0,0,0-5.2-2.62,29.35,29.35,0,0,0-7.17-1.56,35.36,35.36,0,0,0-4.24-.16c-1.77,0-3.52.37-5.28.43-1.22,0-1.52-.66-1.92-1.65-.3-.73-.61-1.44-1-2.14a23.66,23.66,0,0,0-2.93-4.48,19.17,19.17,0,0,0-11.37-6.7c-9.54-1.67-20,2.24-25.55,10.24a19.45,19.45,0,0,0-1.13,1.85c-.67,1.25-1.2,1.65-2.62,1.16a17.72,17.72,0,0,0-9.4-.86c-5.26,1.09-10.43,4.42-12.7,9.42a3.38,3.38,0,0,0,2.85,5c1.44.1,1.44-2.15,0-2.25-3-.22,1.57-5.35,2.38-6.07a17.44,17.44,0,0,1,7.14-3.73,15.71,15.71,0,0,1,9.29.7,3.89,3.89,0,0,0,3.12-.07,4.88,4.88,0,0,0,2-2.34c4.28-7.82,13.56-11.72,22.21-11.12a17.12,17.12,0,0,1,11.56,5.57,21.08,21.08,0,0,1,3,4.24c.67,1.24,1,2.74,1.8,3.9,1.69,2.56,5.27,1.26,7.77,1.16a32.78,32.78,0,0,1,8.15.61,22,22,0,0,1,9.73,4.6c.55.47,1.42,1.06,1.07,1.9a1.13,1.13,0,0,1-1,.65c-.22,0-.45,0-.68,0H96.12c-9,0-18-.18-26.94,0h-.4A1.13,1.13,0,0,0,68.78,335.66Z"/><path class="cls-9" d="M441.57,278.31c-2.14-4.48-7.33-10.75-19-7.12a6.28,6.28,0,0,1-6.26-1.54,12.14,12.14,0,0,0-11.43-3.34c-7.58,1.66-13.79,7-15,12.08a2.7,2.7,0,0,0,2.65,3.25l46.49.55A2.74,2.74,0,0,0,441.57,278.31Z"/><path class="cls-3" d="M442.54,277.74a15.2,15.2,0,0,0-8.56-8,17.19,17.19,0,0,0-8.4-.45c-1.66.28-3.36,1.11-5.06,1s-2.86-1-4.11-2.12a13.62,13.62,0,0,0-7.41-3.28c-3.39-.37-6.86.74-9.88,2.18a22.29,22.29,0,0,0-7.54,5.76c-1.46,1.79-3.41,4.65-2.72,7.09.78,2.77,3.41,2.79,5.71,2.82l8.63.1,24.46.29,8.92.11c2,0,4.22.32,5.6-1.54a3.81,3.81,0,0,0,.47-3.74c-.54-1.32-2.72-.74-2.17.6,1.1,2.71-2,2.45-3.55,2.43l-7.78-.09-22.26-.26c-4.71-.06-9.48.09-14.19-.17-2.11-.12-1.8-2-1.15-3.46a15.52,15.52,0,0,1,5.19-5.92c4.86-3.48,11.66-5.72,17-2.12,1.13.76,2,1.83,3.18,2.53a7.41,7.41,0,0,0,4.5,1c1.74-.17,3.39-.89,5.12-1.14a15.42,15.42,0,0,1,4.55,0c4.38.64,7.6,3.63,9.47,7.51C441.22,280.18,443.17,279,442.54,277.74Z"/><path class="cls-10" d="M168.88,227.38c.13.17.23.36.35.55a.78.78,0,0,0,.29.31.74.74,0,0,0,.38.2.77.77,0,0,0,.45,0,.8.8,0,0,0,.42-.13l.22-.18a1.07,1.07,0,0,0,.29-.49l0-.3a1.16,1.16,0,0,0-.15-.57,3.77,3.77,0,0,0-.34-.54,1.21,1.21,0,0,0-.68-.52.74.74,0,0,0-.44,0,.8.8,0,0,0-.42.13l-.23.18a1.07,1.07,0,0,0-.29.49l0,.3a1.1,1.1,0,0,0,.15.57,3.94,3.94,0,0,1,.35.55l1.94-1.14a6.1,6.1,0,0,0-.34-.54,1.21,1.21,0,0,0-.68-.52.74.74,0,0,0-.44,0,.8.8,0,0,0-.42.13l-.23.18a1.07,1.07,0,0,0-.29.49l0,.3A1.1,1.1,0,0,0,168.88,227.38Z"/><path class="cls-8" d="M170.49,227.83a8.75,8.75,0,0,1,.34,7l.11-.18a16.3,16.3,0,0,0,1.15-2.24c.47-1.11,1.41-2.77,2.75-2.73,1,0,1.43,1,1.61,1.88a5.25,5.25,0,0,1,.07,1.19c1.28-12.84-6.61-6-6.61-6l-.06,0a3.63,3.63,0,0,1,.35.55C170.29,227.52,170.41,227.66,170.49,227.83Z"/><path class="cls-3" d="M169.52,228.39a7.71,7.71,0,0,1,.22,6.19,1.12,1.12,0,0,0,.65,1.33,1.15,1.15,0,0,0,1.41-.46,19.83,19.83,0,0,0,1.26-2.42c.15-.34.31-.67.49-1,.09-.16.2-.31.3-.46s-.13.12.08-.12l.18-.2.19-.18c.14-.14-.05,0,0-.05l.21-.12c.1,0,.12-.06,0,0s0,0,.05,0-.09,0,0,0,.22,0,.07,0l.15,0c.08,0,.07,0,0,0l.09,0c-.09-.07-.1-.08,0,0s.16.15.06,0c.06.08.1.18.16.26s.06.13,0,0a1.63,1.63,0,0,1,.11.31,4.12,4.12,0,0,1,.14,1.31,1.14,1.14,0,0,0,1.12,1.13,1.16,1.16,0,0,0,1.13-1.13,16.26,16.26,0,0,0-.23-5.82,4.25,4.25,0,0,0-2-2.77c-1.7-.82-3.62-.07-5.1.88-.33.21-.63.44-.94.68l-.19.16c-.19.15.16-.12.1-.09a1.14,1.14,0,0,0-.41,1.54,9,9,0,0,1,.64,1,1.12,1.12,0,1,0,1.94-1.13,8.58,8.58,0,0,0-.63-1l-.41,1.53a3,3,0,0,0,.45-.34c.22-.18-.26.19,0,0l.3-.22q.38-.25.78-.48l.46-.25.24-.11c.16-.08-.07,0-.12.05l.15-.06.5-.17.25-.06c.07,0,.39-.06.14,0s.05,0,.13,0H174c.19,0,.26.07,0,0l.26.06c.08,0,.15.06.22.07s-.28-.15-.11,0l.12.06.12.08c.16.09-.06,0-.1-.08s.16.14.22.2a.81.81,0,0,1,.09.1c.15.15-.06-.1,0-.07l.19.29c.06.1.11.21.16.31s0-.05,0-.06a.68.68,0,0,1,.07.2,6,6,0,0,1,.26,1c0,.1,0,.21.06.31s0-.09,0-.09a.88.88,0,0,1,0,.16c0,.23.05.46.06.68a23.1,23.1,0,0,1-.11,3.53h2.25a4.74,4.74,0,0,0-1-3.41,2.65,2.65,0,0,0-3.32-.35,5.53,5.53,0,0,0-2,2.37,31.72,31.72,0,0,1-1.49,2.9l2.06.87a10,10,0,0,0-.45-7.92,1.12,1.12,0,1,0-1.94,1.13Z"/><path class="cls-7" d="M176.47,233.37s0,.06,0,.09v0A.2.2,0,0,1,176.47,233.37Z"/><path class="cls-3" d="M175.38,233.07s0,.06,0,.09a.77.77,0,0,0,0,.45.8.8,0,0,0,.13.42.86.86,0,0,0,.29.31,1,1,0,0,0,.38.21l.3,0a1.25,1.25,0,0,0,.57-.16l.23-.17a1.2,1.2,0,0,0,.29-.5h0s0,.25,0-.15a.77.77,0,0,0,0-.15v-.07a.8.8,0,0,0-.1-.43.77.77,0,0,0-.23-.36.88.88,0,0,0-.36-.24.8.8,0,0,0-.43-.09l-.3,0a1.1,1.1,0,0,0-.5.29l-.18.22a1.16,1.16,0,0,0-.15.57.15.15,0,0,1,0,.07l0-.3v0l2.17.6s0-.06,0-.09a.86.86,0,0,0,0-.45.9.9,0,0,0-.13-.42.86.86,0,0,0-.29-.31.82.82,0,0,0-.38-.2l-.3,0a1.1,1.1,0,0,0-.57.15l-.23.18A1.07,1.07,0,0,0,175.38,233.07Z"/><path class="cls-3" d="M176.52,232.8c0,.19,0,.37-.05.57A5.48,5.48,0,0,0,176.52,232.8Z"/><path class="cls-3" d="M175.4,232.8l-.06.57a1,1,0,0,0,.1.44.77.77,0,0,0,.23.36l.23.17a.81.81,0,0,0,.42.14.76.76,0,0,0,.3,0,.78.78,0,0,0,.41-.14l.23-.17a1.1,1.1,0,0,0,.29-.5c0-.29.08-.58.1-.87a.91.91,0,0,0-.1-.43,1,1,0,0,0-.59-.59.75.75,0,0,0-.44-.1l-.3,0a1.07,1.07,0,0,0-.49.29l-.18.23a1.09,1.09,0,0,0-.15.56c0,.16,0,.31,0,.46l0-.3s0,.08,0,.11l2.21.3.06-.57a.91.91,0,0,0-.1-.43,1,1,0,0,0-.59-.59.75.75,0,0,0-.44-.1l-.3,0a1.07,1.07,0,0,0-.49.29l-.18.23A1.09,1.09,0,0,0,175.4,232.8Z"/><path class="cls-3" d="M176.45,231.61c-.18-.92-.62-1.85-1.61-1.88-1.34,0-2.28,1.62-2.75,2.73a16.3,16.3,0,0,1-1.15,2.24l-.11.18c-.06.15-.12.3-.19.45a8.19,8.19,0,0,1-.39.85c-2.28,4.16-6.53,11.65-8,12.4.26,0,9.06-1.09,13.93-14.12a5.65,5.65,0,0,0,.26-1s0-.06,0-.09c0-.2,0-.38.05-.57A5.25,5.25,0,0,0,176.45,231.61Z"/><path class="cls-3" d="M177.53,231.31a3.06,3.06,0,0,0-2.44-2.68,3.48,3.48,0,0,0-3.16,1.77,35.8,35.8,0,0,0-2,3.73c-.52,1-1,2-1.49,2.94-1.23,2.21-2.48,4.41-3.83,6.55-.58.94-1.18,1.87-1.84,2.76a9.48,9.48,0,0,1-.63.79,2.17,2.17,0,0,1-.48.44c-.91.51-.57,2.23.57,2.1,5.41-.62,9.93-5.26,12.54-9.68,1.52-2.57,3.22-5.66,2.73-8.72-.23-1.43-2.39-.82-2.17.6a6.64,6.64,0,0,1-.79,3.61,30.1,30.1,0,0,1-1.64,3.26,22.41,22.41,0,0,1-3.54,4.62,15.42,15.42,0,0,1-6,3.76c-.32.1-.64.19-1,.26s-.55.08-.16,0l.57,2.09a9.67,9.67,0,0,0,2.74-3.21c1.24-1.85,2.37-3.78,3.48-5.72q.81-1.41,1.59-2.82c.48-.87.86-1.8,1.35-2.66.6-1.07,1-2.25,1.67-3.29.2-.3.59-.94,1-1s.6.65.68,1C175.68,233.32,177.85,232.72,177.53,231.31Z"/><path class="cls-8" d="M170.49,227.83c-.08-.17-.2-.31-.29-.47a6.37,6.37,0,0,0-.35-.55c-1.36-1.78-3.72-2.79-7.8-1,0,0-7.65,4-1.41,12.92,0,0-7-1.81-6.45,4.85.62,6.83,6.05,6.06,8.06,5.05h0c1.46-.75,5.71-8.24,8-12.4a8.19,8.19,0,0,0,.39-.85c.07-.15.13-.3.19-.45A8.75,8.75,0,0,0,170.49,227.83Z"/><path class="cls-3" d="M171.46,227.26a6.42,6.42,0,0,0-6.8-3.42,8.69,8.69,0,0,0-4.65,2,8.47,8.47,0,0,0-2.8,4.79c-.56,3.1.73,6.09,2.46,8.6l1.27-1.65a7.61,7.61,0,0,0-5.68.58c-3.16,2-2.66,7.15-.73,9.82,1.72,2.38,4.92,2.86,7.56,1.86a5.94,5.94,0,0,0,2.65-2.34c1.22-1.66,2.27-3.43,3.32-5.19a59.42,59.42,0,0,0,3.56-6.44,10.2,10.2,0,0,0-.16-8.64c-.63-1.3-2.57-.16-1.94,1.13,2,4.11-.52,7.8-2.52,11.29-.91,1.58-1.83,3.14-2.82,4.67a13.8,13.8,0,0,1-2.32,3.14,1.54,1.54,0,0,1-.5.26,5.53,5.53,0,0,1-1.21.32,4.25,4.25,0,0,1-2.9-.51,5,5,0,0,1-1.9-3.68c-.15-1.17-.18-2.71.8-3.56s3.09-.82,4.19-.54c.89.22,1.85-.81,1.27-1.65-2.26-3.29-3.47-7.46-.21-10.49a5.58,5.58,0,0,1,2.49-1.34,5.41,5.41,0,0,1,3.51,0,4.56,4.56,0,0,1,2.12,2.13A1.12,1.12,0,0,0,171.46,227.26Z"/><path class="cls-3" d="M36.24,192.76A239.63,239.63,0,0,1,420.13,87.37a241.54,241.54,0,0,1,66.47,93.35q2.61,6.57,4.82,13.27c.45,1.37,2.63.79,2.17-.59A241.87,241.87,0,0,0,106.71,84.77a244.06,244.06,0,0,0-67.5,93.53q-2.77,6.85-5.14,13.86c-.46,1.38,1.71,2,2.17.6Z"/><ellipse class="cls-10" cx="438.46" cy="103.12" rx="29.16" ry="29.21"/><path class="cls-3" d="M466.5,103.12a28,28,0,1,1-.36-4.54,28.75,28.75,0,0,1,.36,4.54,1.13,1.13,0,0,0,2.25,0,30.42,30.42,0,1,0-.39,4.8,32.15,32.15,0,0,0,.39-4.8A1.13,1.13,0,0,0,466.5,103.12Z"/><polygon class="cls-11" points="428.84 92.46 452.81 92.46 449.55 112.48 425.25 112.15 428.84 92.46"/><path class="cls-3" d="M428.84,93.59h24l-1.09-1.43-3.25,20,1.08-.83-21.22-.28-3.08,0,1.09,1.42,3.58-19.69c.26-1.42-1.91-2-2.17-.6l-3.58,19.69a1.14,1.14,0,0,0,1.08,1.43l21.22.28,3.08,0a1.12,1.12,0,0,0,1.08-.82l3.26-20a1.14,1.14,0,0,0-1.08-1.42h-24A1.13,1.13,0,0,0,428.84,93.59Z"/><path class="cls-3" d="M450.32,115.56l3.41-21.08c.15-1,.32-1.89.46-2.84a4.55,4.55,0,0,0-4.39-5.35c-3.38-.14-6.79,0-10.17,0h-5.76c-1.74,0-3.39.16-4.61,1.61a6.58,6.58,0,0,0-1.2,3.44l-.82,5.1-2.14,13.23c-.5,3.1-1.85,7.25,1.72,9.06a8.63,8.63,0,0,0,4,.48h12.74a11.35,11.35,0,0,0,4-.31,4.53,4.53,0,0,0,2.76-3.34c.31-1.41-1.86-2-2.16-.6-.42,2-2,2-3.55,2h-5.26c-3.43,0-6.87.07-10.31,0s-2.24-3.75-1.9-5.85l1.94-12c.45-2.81.81-5.64,1.36-8.43a2.49,2.49,0,0,1,2.75-2.14c1.51,0,3,0,4.54,0H449c1.56,0,3.15.57,3,2.48a22.47,22.47,0,0,1-.37,2.3l-3.41,21.11-.08.53C447.93,116.38,450.09,117,450.32,115.56Z"/><line class="cls-10" x1="452.54" y1="93.04" x2="428.61" y2="93.04"/><path class="cls-3" d="M452.54,91.91H428.61a1.13,1.13,0,0,0,0,2.25h23.93a1.13,1.13,0,0,0,0-2.25Z"/><line class="cls-10" x1="425.68" y1="112.48" x2="449.55" y2="112.48"/><path class="cls-3" d="M425.68,113.6h23.87a1.13,1.13,0,0,0,0-2.25H425.68a1.13,1.13,0,0,0,0,2.25Z"/><path class="cls-3" d="M443.06,96.41l-8.16,8.18-1.17,1.17a1.12,1.12,0,0,0,1.59,1.59l8.15-8.17L444.65,98a1.13,1.13,0,0,0-1.59-1.6Z"/><ellipse class="cls-10" cx="35.16" cy="221.67" rx="29.16" ry="29.21"/><path class="cls-3" d="M63.19,221.67A28.36,28.36,0,0,1,44.89,248a28.08,28.08,0,1,1-4.2-53.9,28.37,28.37,0,0,1,22.14,23,28.75,28.75,0,0,1,.36,4.54,1.13,1.13,0,0,0,2.25,0,30.66,30.66,0,0,0-19.79-28.46,30.47,30.47,0,0,0-33.77,9.07,30.32,30.32,0,0,0,29.25,49.14,30.54,30.54,0,0,0,23.93-24.94,33.77,33.77,0,0,0,.38-4.81A1.13,1.13,0,0,0,63.19,221.67Z"/><ellipse class="cls-12" cx="35.16" cy="221.67" rx="15.27" ry="15.3"/><path class="cls-3" d="M49.3,221.67a14.14,14.14,0,0,1-25,9.07,14.18,14.18,0,0,1,13.66-23,14.33,14.33,0,0,1,11.36,13.9,1.13,1.13,0,0,0,2.25,0,16.39,16.39,0,0,0-29.07-10.4,16.42,16.42,0,0,0,15.89,26.51,16.59,16.59,0,0,0,13.18-16.11A1.13,1.13,0,0,0,49.3,221.67Z"/><line class="cls-10" x1="19.89" y1="221.67" x2="50.43" y2="221.67"/><path class="cls-3" d="M19.89,222.8H50.43a1.13,1.13,0,0,0,0-2.25H19.89a1.13,1.13,0,0,0,0,2.25Z"/><path class="cls-3" d="M34.36,205.58c-5.24,5.26-7.23,13.65-5.63,20.76a29.7,29.7,0,0,0,5.46,11.2c.86,1.15,2.81,0,1.94-1.13-4.59-6.12-7.13-13.56-4.81-21.08A20.31,20.31,0,0,1,36,207.17a1.12,1.12,0,0,0-1.59-1.59Z"/><path class="cls-3" d="M34.36,207.17A20.19,20.19,0,0,1,39,215.33c2.32,7.52-.22,15-4.8,21.08-.87,1.15,1.08,2.28,1.94,1.13,4-5.3,6.64-11.75,5.91-18.48a23.92,23.92,0,0,0-4.37-11.37A17.41,17.41,0,0,0,36,205.58a1.12,1.12,0,0,0-1.59,1.59Z"/><ellipse class="cls-10" cx="496.84" cy="222.91" rx="29.16" ry="29.21"/><path class="cls-3" d="M466.56,222.91a30.34,30.34,0,1,0,.38-4.8,33.52,33.52,0,0,0-.38,4.8,1.13,1.13,0,0,0,2.25,0,28,28,0,1,1,.36,4.54,28.75,28.75,0,0,1-.36-4.54A1.13,1.13,0,0,0,466.56,222.91Z"/><path class="cls-13" d="M512.65,222.24A15.83,15.83,0,0,1,499.33,238V226.81H503l.7-4.53h-4.38v-3a2.26,2.26,0,0,1,2-2.52,2.08,2.08,0,0,1,.61,0h2V212.9a21.13,21.13,0,0,0-3.55-.34,5.61,5.61,0,0,0-6,5.2,6.71,6.71,0,0,0,0,1v3.48h-4v4.52h4V238a15.83,15.83,0,1,1,18.27-15.72Z"/><path class="cls-3" d="M494.68,236.88a14.67,14.67,0,1,1,5.39-.2,26.38,26.38,0,0,1-5.69.16,1.13,1.13,0,0,0,0,2.25,30.86,30.86,0,0,0,5.77-.14,16.87,16.87,0,0,0,9.32-5.33,16.93,16.93,0,1,0-15.39,5.43C495.5,239.29,496.11,237.12,494.68,236.88Z"/><ellipse class="cls-10" cx="210.05" cy="34.5" rx="29.16" ry="29.21"/><path class="cls-3" d="M179.76,34.5A30.3,30.3,0,1,0,236,18.81,30.26,30.26,0,0,0,180.15,29.7a32.15,32.15,0,0,0-.39,4.8,1.13,1.13,0,0,0,2.25,0,28,28,0,1,1,52.1,14.42A28,28,0,0,1,182.37,39,28.75,28.75,0,0,1,182,34.5,1.13,1.13,0,0,0,179.76,34.5Z"/><path class="cls-7" d="M226.79,34.5a16.73,16.73,0,0,1-23.52,15.34l-8.73,1.53,3-5.66.06,0A16.76,16.76,0,1,1,226.79,34.5Z"/><path class="cls-3" d="M225.67,34.5a15.61,15.61,0,0,1-20.51,14.87,5.12,5.12,0,0,0-2.71-.52l-2.65.46-5.56,1,1.27,1.65,3-5.65-1.54.4.07,0A1.13,1.13,0,0,0,198.43,45,15.63,15.63,0,1,1,225.67,34.5a1.13,1.13,0,0,0,2.25,0,17.87,17.87,0,1,0-31.08,12l1.36-1.76-.06,0a1.13,1.13,0,0,0-1.54.4l-3,5.66a1.14,1.14,0,0,0,1.27,1.65l8.73-1.52-.87-.12A17.87,17.87,0,0,0,227.92,34.5,1.13,1.13,0,0,0,225.67,34.5Z"/><path class="cls-14" d="M205.59,26.85c-.37-.88-.73-.76-1-.77l-.85,0a1.69,1.69,0,0,0-1.2.56A5.06,5.06,0,0,0,201,30.35,8.63,8.63,0,0,0,202.8,35c.22.3,3.14,4.82,7.62,6.75a25,25,0,0,0,2.55,1,6,6,0,0,0,2.81.17,4.6,4.6,0,0,0,3-2.12,3.79,3.79,0,0,0,.26-2.13c-.12-.19-.41-.3-.86-.52s-2.64-1.31-3-1.46-.71-.22-1,.23S213,38.3,212.73,38.6s-.52.34-1,.11a12.1,12.1,0,0,1-3.59-2.22,13.16,13.16,0,0,1-2.48-3.1c-.26-.44,0-.69.19-.91s.45-.52.67-.78A2.88,2.88,0,0,0,207,31a.82.82,0,0,0,0-.78C206.85,29.94,206,27.74,205.59,26.85Z"/><ellipse class="cls-10" cx="88.89" cy="103.12" rx="29.16" ry="29.21"/><path class="cls-3" d="M116.93,103.12a28,28,0,1,1-.36-4.54,28.75,28.75,0,0,1,.36,4.54,1.13,1.13,0,0,0,2.25,0,30.42,30.42,0,1,0-.39,4.8,32.15,32.15,0,0,0,.39-4.8A1.13,1.13,0,0,0,116.93,103.12Z"/><rect class="cls-8" x="73.52" y="92.68" width="31.26" height="21.85"/><path class="cls-3" d="M104.77,113.4H73.52l1.12,1.12V92.68L73.52,93.8h31.25l-1.12-1.12v21.84a1.13,1.13,0,0,0,2.25,0V92.68a1.15,1.15,0,0,0-1.13-1.13H73.52a1.15,1.15,0,0,0-1.13,1.13v21.84a1.15,1.15,0,0,0,1.13,1.13h31.25A1.13,1.13,0,0,0,104.77,113.4Z"/><path class="cls-3" d="M73,93.65l15.63,10.92a1.09,1.09,0,0,0,1.13,0l15.63-10.92c1.18-.83.06-2.78-1.13-2L88.58,102.63h1.13L74.09,91.7c-1.19-.83-2.32,1.12-1.14,2Z"/><ellipse class="cls-10" cx="320.96" cy="34.5" rx="29.16" ry="29.21"/><path class="cls-3" d="M290.68,34.5a30.29,30.29,0,1,0,56.21-15.69A30.27,30.27,0,0,0,291.06,29.7a33.52,33.52,0,0,0-.38,4.8,1.13,1.13,0,0,0,2.25,0A28,28,0,1,1,345,48.92,28,28,0,0,1,293.29,39a28.75,28.75,0,0,1-.36-4.54A1.13,1.13,0,0,0,290.68,34.5Z"/><path class="cls-15" d="M313.06,20.13h15.07a6.24,6.24,0,0,1,6.21,6.22v15a6.24,6.24,0,0,1-6.21,6.22H313.06a6.23,6.23,0,0,1-6.21-6.22v-15A6.23,6.23,0,0,1,313.06,20.13Z"/><path class="cls-3" d="M313.06,21.26c5,0,10.05-.13,15.06,0a5.16,5.16,0,0,1,5,4.06,13.4,13.4,0,0,1,.11,2.76V38.3c0,1,0,2,0,3a5.18,5.18,0,0,1-3.42,4.89,8.91,8.91,0,0,1-3,.28H322.2c-3,0-5.93,0-8.89,0a5.26,5.26,0,0,1-4.47-2.25,6.32,6.32,0,0,1-.87-3.75V29.49c0-1,0-2.08,0-3.12a5.18,5.18,0,0,1,5.09-5.11c1.44,0,1.45-2.29,0-2.25a7.47,7.47,0,0,0-6.49,3.92,9.26,9.26,0,0,0-.85,4.4V38.1c0,1.07,0,2.14,0,3.21a7.54,7.54,0,0,0,3.11,6c2.65,1.89,6.36,1.35,9.44,1.35s6.45,0,9.67,0a7.48,7.48,0,0,0,7.52-7.6c0-3.38,0-6.77,0-10.15,0-3.18.46-6.66-1.73-9.28-2.67-3.21-6.86-2.63-10.58-2.63H313.06A1.13,1.13,0,0,0,313.06,21.26Z"/><path class="cls-14" d="M329.79,28.13a7.76,7.76,0,0,1-2.17.59,3.75,3.75,0,0,0,1.66-2.09,7.41,7.41,0,0,1-2.39.92,3.78,3.78,0,0,0-6.53,2.59,3.61,3.61,0,0,0,.1.86,10.72,10.72,0,0,1-7.78-4,3.87,3.87,0,0,0-.51,1.91h0a3.76,3.76,0,0,0,1.68,3.13,3.81,3.81,0,0,1-1.71-.47v.05a3.78,3.78,0,0,0,3,3.72,4.22,4.22,0,0,1-1,.13,3.35,3.35,0,0,1-.71-.07A3.8,3.8,0,0,0,317,38.07a7.59,7.59,0,0,1-5.59,1.56,10.53,10.53,0,0,0,5.79,1.7,10.68,10.68,0,0,0,10.73-10.76c0-.16,0-.32,0-.49a7.42,7.42,0,0,0,1.88-1.95Z"/><path class="cls-3" d="M270.54,430.05c-1.56,2.09-3.32,4.1-4.24,6.57a15.88,15.88,0,0,0-.65,6.81l1,15.32.31,4.73c.1,1.44,2.35,1.45,2.25,0L268.46,452l-.49-7.5a23.81,23.81,0,0,1-.09-5.06c.49-3.27,2.69-5.72,4.6-8.27.87-1.16-1.08-2.29-1.94-1.14Z"/><path class="cls-3" d="M200.78,375l19.74-13,31.21-20.55,7.23-4.75-1.69-1v56l.55-1A233.41,233.41,0,0,1,227,402.7a107.06,107.06,0,0,1-23,4.53c-9.54.65-20.26-.51-27.47-7.47-5.64-5.46-7.84-13.34-8.12-21A67.78,67.78,0,0,1,172.47,354a76.51,76.51,0,0,1,5.14-11.47,168.39,168.39,0,0,1,18.09-27A135.5,135.5,0,0,1,219,293.14c7.84-5.85,16.49-11.05,25.73-14.34q8.52-3,17.06-6.05l35.18-12.48,36.65-13L355,239.66l1-.37a1.16,1.16,0,0,0,.83-1.08l-.29-9.3-.68-22.46-.82-27L354.39,156l-.23-7.72a19.12,19.12,0,0,0-.11-3.71.43.43,0,0,1,0-.16l-.83,1.09,15.5-3.9,24.58-6.19L399,134l-1.38-.79.15,1c.05.38.11.76.16,1.14,0,.15.06.43,0,.1l.06.42c0,.27.07.55.11.83.42,3.41.73,6.83.95,10.26.34,5.11.49,10.24.47,15.36q0,9.66-.95,19.28a191.92,191.92,0,0,1-3.26,21.59A164.54,164.54,0,0,1,388.79,226a137.68,137.68,0,0,1-10.74,22.74,121.72,121.72,0,0,1-15.81,21.14,118.91,118.91,0,0,1-21.86,18.29,135.2,135.2,0,0,1-29,14.17c-2.71,1-5.45,1.83-8.21,2.64a1.13,1.13,0,0,0-.82,1.09l2.16,22.63,2.8,29.32c.65,6.77.93,14-1,20.59-.56,1.9-1.41,4.16-3.2,5.24a5.17,5.17,0,0,1-2.84.53H258.39a1.13,1.13,0,0,0,0,2.25h40.46c.8,0,1.61,0,2.41,0a6.71,6.71,0,0,0,5.38-3.23c2.92-4.39,3.18-10.6,3.28-15.7a73.7,73.7,0,0,0-.23-8.14c-.79-8.63-1.65-17.24-2.47-25.86l-1.64-17.18c-.32-3.29-.4-6.71-1-10a3.88,3.88,0,0,1,0-.48l-.83,1.08a146.37,146.37,0,0,0,31.15-13,123.69,123.69,0,0,0,23.8-17.52,122.21,122.21,0,0,0,17.59-20.86A134.59,134.59,0,0,0,388.45,233a158.83,158.83,0,0,0,7.67-23.27,189.57,189.57,0,0,0,4.09-22.42c.83-6.73,1.32-13.5,1.49-20.27q.23-8.36-.19-16.71c-.19-3.91-.49-7.82-.93-11.71a52.56,52.56,0,0,0-.75-5.75,2,2,0,0,1,0-.24,1.14,1.14,0,0,0-1.39-.78l-15.49,3.9-24.58,6.18-5.71,1.44a1.14,1.14,0,0,0-.83,1.08l.28,9.3.69,22.46.82,27.06.71,23.4.24,7.73a18.26,18.26,0,0,0,.11,3.7s0,.11,0,.16l.82-1.09-15.71,5.58-35.28,12.51L267.1,268.46,245,276.29c-16.34,5.79-30.88,16.34-42.9,28.7A158.57,158.57,0,0,0,182,330.65a122.47,122.47,0,0,0-10,18.42A75,75,0,0,0,166.13,374c-.42,8.07.78,16.73,5.48,23.51,5.4,7.81,14.37,11.28,23.57,12a75.12,75.12,0,0,0,20.44-1.62,164,164,0,0,0,27.48-8.37c5.35-2.08,10.64-4.36,15.86-6.76a1.1,1.1,0,0,0,.56-1v-56a1.14,1.14,0,0,0-1.7-1l-19.73,13-31.22,20.55-7.22,4.75c-1.21.79-.08,2.74,1.13,1.94Z"/><path class="cls-3" d="M219.66,325.74l-5.43,33.69-.77,4.77c-.23,1.42,1.94,2,2.17.6l5.43-33.69.77-4.77c.23-1.42-1.94-2-2.17-.6Z"/><polygon class="cls-6" points="258.39 391.76 258.39 335.75 242.82 346 242.32 398.37 258.39 391.76"/><path class="cls-3" d="M259.52,391.76v-56a1.14,1.14,0,0,0-1.7-1l-13.13,8.65c-1,.65-2.88,1.42-3,2.73s0,2.45,0,3.65L241.31,387l-.11,11.42a1.12,1.12,0,0,0,1.42,1.08l16.07-6.61c1.32-.54.74-2.72-.6-2.17L242,397.28l1.43,1.09.17-17.72.27-28.21L244,346l-.56,1L259,336.73l-1.69-1v56A1.13,1.13,0,0,0,259.52,391.76Z"/><polygon class="cls-4" points="268.15 269.28 255.86 273.64 261.8 278.54 268.15 269.28"/><path class="cls-3" d="M267.85,268.2,257.11,272l-1.55.54c-.72.26-1.2,1.3-.49,1.88l5.94,4.9a1.14,1.14,0,0,0,1.76-.22l5.56-8.11.79-1.15a1.13,1.13,0,0,0-.4-1.54,1.15,1.15,0,0,0-1.54.4l-5.56,8.1-.79,1.16,1.77-.23-5.94-4.9-.5,1.88,10.75-3.81,1.54-.55C269.81,269.88,269.22,267.71,267.85,268.2Z"/><polygon class="cls-6" points="280.37 264.95 271.07 286.19 255.85 273.63 244.3 277.74 254.03 289.86 268.15 269.28 280.37 264.95"/><path class="cls-3" d="M279.4,264.38,271.27,283l-1.17,2.66,1.77-.23-10.87-9c-1.42-1.18-2.8-2.48-4.3-3.55-.71-.51-1.17-.32-1.9-.06l-3.52,1.25L244,276.66a1.15,1.15,0,0,0-.5,1.88l9.74,12.12a1.13,1.13,0,0,0,1.76-.23l12.38-18,1.75-2.55-.68.51L280.67,266c1.36-.48.77-2.65-.6-2.17l-7.5,2.66L268.41,268a2.46,2.46,0,0,0-1.37.92c-3.47,4.9-6.8,9.91-10.19,14.85l-3.79,5.52,1.77-.22-9.74-12.13-.49,1.89,11.55-4.11-1.09-.29L270.28,287c.49.41,1.45.5,1.76-.23l8.14-18.57,1.16-2.66C281.92,264.2,280,263.06,279.4,264.38Z"/><polygon class="cls-6" points="268.15 269.28 268.15 269.28 272.11 267.88 268.15 269.28"/><path class="cls-3" d="M267.18,268.71h0a1.12,1.12,0,0,0,.09,1.25,1.1,1.1,0,0,0,1.18.4l3.46-1.22.5-.18a1.13,1.13,0,0,0-.6-2.17L268.35,268l-.49.17a1.12,1.12,0,1,0,.59,2.17l3.46-1.22.5-.18-.6-2.17L268.35,268l-.5.18,1.27,1.65h0a1.15,1.15,0,0,0,.11-.87,1.12,1.12,0,0,0-.52-.67A1.16,1.16,0,0,0,267.18,268.71Z"/><polygon class="cls-6" points="255.85 273.63 244.32 277.73 255.86 273.64 255.85 273.63"/><path class="cls-3" d="M255.56,272.55l-10.09,3.58-1.45.52a1.13,1.13,0,1,0,.6,2.17l10.09-3.58,1.45-.52a1.13,1.13,0,0,0,.5-1.88h0a1.15,1.15,0,0,0-1.59,0,1.13,1.13,0,0,0,0,1.59h0l.49-1.88-10.09,3.58-1.45.52.6,2.17,10.08-3.59,1.45-.51a1.16,1.16,0,0,0,.79-1.39A1.13,1.13,0,0,0,255.56,272.55Z"/><path class="cls-4" d="M361.69,142.2l37-9.32s-2.09-24.78-14.09-30.94a1.69,1.69,0,0,0-.76-.17A97.56,97.56,0,0,0,365,103.85s-2-10.19-4.74-11.08c0,0-7.45,2.72.72,26.26,0,0-6.95,6.76-4.06,13.45A92.11,92.11,0,0,0,361.69,142.2Z"/><path class="cls-3" d="M362,143.28l32.49-8.18L399,134a1.16,1.16,0,0,0,.83-1.09,69.39,69.39,0,0,0-3.13-15.23,39.44,39.44,0,0,0-5.23-11,20.28,20.28,0,0,0-3.81-4.09,7.13,7.13,0,0,0-4.75-2,99.24,99.24,0,0,0-18.18,2.11l1.38.79c-.43-2.18-2.87-13.83-6.64-11.62-3.2,1.88-3.51,6.85-3.4,10.07.22,5.92,1.94,11.77,3.86,17.33l.29-1.09c-2.88,2.82-5.27,7.08-5.09,11.2.14,3.26,2,6.41,3.46,9.28.67,1.37,1.35,2.74,2.13,4a1.12,1.12,0,0,0,1.94-1.13c-.61-1-1.17-2.12-1.71-3.2-.66-1.3-1.29-2.63-1.9-4a15,15,0,0,1-1.65-4.7c-.33-3.64,1.87-7.45,4.41-9.94a1.15,1.15,0,0,0,.29-1.1,65.46,65.46,0,0,1-3.63-14.7,18.79,18.79,0,0,1,.42-7.47,5.14,5.14,0,0,1,1.6-2.62c-.35.29.29-.1.32-.18s-.34.09-.23.1c-.92,0-.54,0-.22.31a6.42,6.42,0,0,1,1.06,1.69,34.11,34.11,0,0,1,2.52,8.29,1.15,1.15,0,0,0,1.39.78,97.08,97.08,0,0,1,16.39-2,17.83,17.83,0,0,1,1.79,0,4.39,4.39,0,0,1,2.2,1,16.9,16.9,0,0,1,3.66,3.7c4.3,5.77,6.26,13.2,7.5,20.19.31,1.73.56,3.33.71,5.06l.82-1.08L365.92,140l-4.53,1.14A1.13,1.13,0,0,0,362,143.28Z"/><path class="cls-3" d="M361.81,119.83a41.3,41.3,0,0,1,8-6.33,4.78,4.78,0,0,1,4.52-.26c.81.47.68,1.29.36,2.06a22.45,22.45,0,0,1-2.84,4.33c-1.13,1.56-2.29,3.12-3.55,4.57a1.14,1.14,0,0,0,.49,1.88l.27.1c-.28-.12.42.2.54.27a9.05,9.05,0,0,1,2,1.4,8.21,8.21,0,0,1,2.42,7.21c-.15,1.44,2.1,1.43,2.25,0a10.47,10.47,0,0,0-6.89-11.15l.5,1.88c1.35-1.55,2.59-3.21,3.79-4.87,1.55-2.12,4.77-5.59,3.05-8.43-1.17-1.92-4.07-2.19-6.06-1.76-2.19.47-4.19,2.22-5.9,3.57s-3.09,2.56-4.54,3.94c-1.06,1,.53,2.58,1.59,1.59Z"/><path class="cls-3" d="M363.94,104.15l2.77,8.18.39,1.16a1.17,1.17,0,0,0,1.39.79,1.14,1.14,0,0,0,.78-1.39l-2.77-8.18-.39-1.16a1.13,1.13,0,1,0-2.17.6Z"/><path class="cls-3" d="M373.38,102.71c.71,2.58,1.34,5.2,1.92,7.82.9,4.08,1.92,8.41,1.74,12.62a2.56,2.56,0,0,1-.16,1.17c-.33.5-.9.15-1.28-.08a5.53,5.53,0,0,1-2.27-3.69c-.33-1.41-2.5-.82-2.17.6.56,2.38,2.42,5.73,5.32,5.7s2.9-3.55,2.78-5.67A84.28,84.28,0,0,0,376.55,106c-.32-1.3-.65-2.6-1-3.88a1.13,1.13,0,0,0-2.17.6Z"/><path class="cls-3" d="M382.76,102.07a98.4,98.4,0,0,1,2,10.63,40.91,40.91,0,0,1,.41,7.89,8.8,8.8,0,0,1-.51,2.74,4.43,4.43,0,0,1-.37.68,1.24,1.24,0,0,1-.37.31c-.33.12,0,.05-.44.06a4.47,4.47,0,0,1-1.31-.15c-1.67-.5-2.5-2.1-3-3.66a1.13,1.13,0,0,0-2.17.6c.91,3,3.09,5.62,6.46,5.46a3.76,3.76,0,0,0,3.45-3c.81-2.55.6-5.48.38-8.11A87.41,87.41,0,0,0,386,106.6c-.32-1.71-.67-3.43-1.08-5.13-.34-1.41-2.51-.81-2.17.6Z"/><path class="cls-3" d="M391.66,111.26l.09.59a2.34,2.34,0,0,1,0,.26c0,.08,0,.39,0,.14,0,.3.08.6.11.91a37.11,37.11,0,0,1,.27,4.47,15.24,15.24,0,0,1-.14,2.11c-.08.5-.14,1.25-.57,1.59a.94.94,0,0,1-.69.18,2.29,2.29,0,0,1-.37-.12c-.18-.06,0,0,.06,0l-.22-.1a6.16,6.16,0,0,1-.55-.33,1.53,1.53,0,0,1-.16-.11c-.13-.09.14.11,0,0a3.17,3.17,0,0,1-.34-.3,4.64,4.64,0,0,1-1.1-1.64,9.41,9.41,0,0,1-.64-2.89,1.13,1.13,0,1,0-2.25,0,9.85,9.85,0,0,0,2,5.73,5.25,5.25,0,0,0,3.62,2,3.16,3.16,0,0,0,2.84-1.7,7.79,7.79,0,0,0,.62-2.61,26.09,26.09,0,0,0-.07-5.3c-.1-1.17-.24-2.34-.44-3.49a1.14,1.14,0,0,0-1.39-.79,1.16,1.16,0,0,0-.78,1.39Z"/><path class="cls-6" d="M352.92,144.4l.51,16.83,46.94-11.14a160.13,160.13,0,0,0-1.67-17.21Z"/><path class="cls-3" d="M351.79,144.4l.51,16.83a1.15,1.15,0,0,0,1.43,1.09l15.83-3.76,25.26-6,5.85-1.39a1.14,1.14,0,0,0,.83-1.08,148.9,148.9,0,0,0-1.71-17.51,1.14,1.14,0,0,0-1.39-.78l-15.51,3.9-24.6,6.19-5.67,1.43a1.13,1.13,0,0,0,.59,2.17l15.52-3.91,24.59-6.19L399,134l-1.38-.79a145.08,145.08,0,0,1,1.63,16.91l.83-1.09-15.83,3.76-25.27,6-5.85,1.39,1.42,1.08L354,144.4C354,143,351.75,143,351.79,144.4Z"/><path class="cls-4" d="M265,331.65s4.53-8.17,8.5-8.29,4.19,6.47,4.19,6.47"/><path class="cls-3" d="M266,332.22a24.66,24.66,0,0,1,4.56-6.06,8,8,0,0,1,1.91-1.38,2.54,2.54,0,0,1,1.49-.27,1.5,1.5,0,0,1,.76.31c.29.19-.08-.07.08.06l.2.18.15.16.1.12a5.14,5.14,0,0,1,.86,1.78,10.05,10.05,0,0,1,.26,1.05c0,.16.07.32.1.48l0,.22c0,.26,0,0,0,0,0,.31.07.62.08.93.05,1.45,2.3,1.45,2.25,0-.09-2.5-.88-6-3.37-7.16-3.85-1.84-7.38,2.53-9.36,5.25a30,30,0,0,0-2.05,3.16c-.71,1.27,1.24,2.4,1.94,1.14Z"/><path class="cls-4" d="M287.56,364.16c5.76-7.9.91-22.78.91-22.78-5.84-21.78-30.08-5.63-30.08-5.63l0,40.59,11.41-8.43s.65,5.9,6.67,4.41S287.56,364.16,287.56,364.16Z"/><path class="cls-3" d="M288.53,364.72c3.22-4.53,3.33-10.61,2.65-15.93a43.25,43.25,0,0,0-2.48-10.33c-1.63-4.12-4.52-7.58-8.84-8.94-3.65-1.14-7.66-.67-11.27.36a41.32,41.32,0,0,0-8.85,3.76,16.46,16.46,0,0,0-1.82,1.08,1.61,1.61,0,0,0-.65,1.54v20.16c0,6.51-.15,13.05,0,19.56v.36a1.13,1.13,0,0,0,1.69,1l11.42-8.43-1.69-1a7.36,7.36,0,0,0,1.4,3.56c1.57,2.06,4.08,2.53,6.52,2,4.77-1.08,9-4.92,11.9-8.73.88-1.15-1.07-2.27-1.94-1.13.28-.38,0,0-.07.08l-.57.68c-.64.74-1.32,1.45-2,2.12a19.07,19.07,0,0,1-6.57,4.41c-1.81.65-4.08,1-5.42-.7a5.05,5.05,0,0,1-.82-1.64c-.05-.19-.23-1.19-.16-.63-.09-.75-.93-1.54-1.7-1l-11.41,8.44,1.69,1,0-35.5v-5.09l-.56,1c4.41-2.93,9.91-5.28,15.22-5.58,4-.23,7.8,1,10.3,4.23,2.22,2.89,3.17,6.7,3.9,10.22,1.2,5.79,1.82,12.9-1.79,18C285.75,364.77,287.7,365.9,288.53,364.72Z"/><path class="cls-3" d="M272.28,356.9a5.09,5.09,0,0,1,1.2-1.5,5.75,5.75,0,0,1,3.79-1.63,8.57,8.57,0,0,1,8.12,6.63,8,8,0,0,1-1.34,6c-.82,1.2,1.13,2.33,1.94,1.14a10.08,10.08,0,0,0-1.16-12.72c-3.06-3.17-8.28-4.57-12-1.78a8.59,8.59,0,0,0-2.46,2.7c-.7,1.27,1.25,2.41,1.94,1.14Z"/><path class="cls-3" d="M271.85,348.44a8.41,8.41,0,0,1,8.29-2.32c3.76,1.13,6.14,5.14,7.19,8.68a14.44,14.44,0,0,1,.49,6.72c-.27,1.41,1.9,2,2.17.6,1.64-8.69-5.42-22-15.81-17.83a10.77,10.77,0,0,0-3.92,2.55c-1,1.07.61,2.66,1.59,1.6Z"/><path class="cls-3" d="M271.85,340.87c3-3.08,8.32-2.68,11.79-.27,3.82,2.66,5.68,7.69,5.63,12.22a1.13,1.13,0,0,0,2.25,0,18.21,18.21,0,0,0-4.09-11.76c-3.12-3.69-8.47-5.73-13.17-4.14a10.28,10.28,0,0,0-4,2.36c-1,1,.58,2.62,1.59,1.59Z"/><path class="cls-3" d="M270.4,368.88l4.58-3.42.65-.49a1.13,1.13,0,0,0,.41-1.54,1.14,1.14,0,0,0-1.54-.4l-4.58,3.42-.66.48a1.24,1.24,0,0,0-.51.68,1.12,1.12,0,0,0,.11.86,1.14,1.14,0,0,0,1.54.41Z"/></g></g></svg>